<?xml version="1.0" encoding="UTF-8" standalone="no"?>
<!-- Created with Inkscape (http://www.inkscape.org/) -->

<svg
   width="500"
   height="500"
   viewBox="0 0 132.29166 132.29167"
   version="1.1"
   id="svg5"
   inkscape:version="1.1.2 (b8e25be833, 2022-02-05)"
   sodipodi:docname="logo1.svg"
   inkscape:export-filename="D:\Tugas\0 Projects\Pikitup\logo1.png"
   inkscape:export-xdpi="96"
   inkscape:export-ydpi="96"
   xmlns:inkscape="http://www.inkscape.org/namespaces/inkscape"
   xmlns:sodipodi="http://sodipodi.sourceforge.net/DTD/sodipodi-0.dtd"
   xmlns="http://www.w3.org/2000/svg"
   xmlns:svg="http://www.w3.org/2000/svg">
  <sodipodi:namedview
     id="namedview7"
     pagecolor="#505050"
     bordercolor="#eeeeee"
     borderopacity="1"
     inkscape:pageshadow="0"
     inkscape:pageopacity="0"
     inkscape:pagecheckerboard="0"
     inkscape:document-units="mm"
     showgrid="false"
     units="px"
     inkscape:zoom="0.20775373"
     inkscape:cx="-259.92313"
     inkscape:cy="385.0713"
     inkscape:window-width="1280"
     inkscape:window-height="667"
     inkscape:window-x="-8"
     inkscape:window-y="-8"
     inkscape:window-maximized="1"
     inkscape:current-layer="layer1"
     showguides="false" />
  <defs
     id="defs2" />
  <g
     inkscape:label="Layer 1"
     inkscape:groupmode="layer"
     id="layer1">
    <path
       style="fill:#00df2c;fill-opacity:1;stroke:#ffffff;stroke-width:0.941264;stroke-linecap:butt;stroke-linejoin:miter;stroke-miterlimit:4;stroke-dasharray:none;stroke-opacity:1"
       d="M 28.63278,55.679422 V 121.06159 H 67.066989 V 71.849203 Z"
       id="path10046" />
    <path
       id="path4323"
       style="fill:#00df2c;fill-opacity:1;stroke:#ffffff;stroke-width:0.941264;stroke-miterlimit:4;stroke-dasharray:none;stroke-opacity:1"
       d="M 66.80599,11.789592 A 38.462949,38.46296 0 0 0 28.342745,50.252404 38.462949,38.46296 0 0 0 66.80599,88.71565 38.462949,38.46296 0 0 0 105.2688,50.252404 38.462949,38.46296 0 0 0 66.80599,11.789592 Z m 0,28.768704 a 9.6941815,9.694184 0 0 1 0.330897,0.0056 9.6941815,9.694184 0 0 1 0.330466,0.01685 9.6941815,9.694184 0 0 1 0.330035,0.02851 9.6941815,9.694184 0 0 1 0.328305,0.03931 9.6941815,9.694184 0 0 1 0.327443,0.05054 9.6941815,9.694184 0 0 1 0.325284,0.0622 9.6941815,9.694184 0 0 1 0.322689,0.07258 9.6941815,9.694184 0 0 1 0.3201,0.0838 9.6941815,9.694184 0 0 1 0.317506,0.09504 9.6941815,9.694184 0 0 1 0.313619,0.105403 9.6941815,9.694184 0 0 1 0.309731,0.116203 9.6941815,9.694184 0 0 1 0.305845,0.126571 9.6941815,9.694184 0 0 1 0.301523,0.136939 9.6941815,9.694184 0 0 1 0.296338,0.147306 9.6941815,9.694184 0 0 1 0.291158,0.157241 9.6941815,9.694184 0 0 1 0.285972,0.167177 9.6941815,9.694184 0 0 1 0.279923,0.176681 9.6941815,9.694184 0 0 1 0.273445,0.186616 9.6941815,9.694184 0 0 1 0.267396,0.195255 9.6941815,9.694184 0 0 1 0.260053,0.204328 9.6941815,9.694184 0 0 1 0.253143,0.213401 9.6941815,9.694184 0 0 1 0.245796,0.221605 9.6941815,9.694184 0 0 1 0.238024,0.230246 9.6941815,9.694184 0 0 1 0.230245,0.238023 9.6941815,9.694184 0 0 1 0.221606,0.245797 9.6941815,9.694184 0 0 1 0.213401,0.253143 9.6941815,9.694184 0 0 1 0.204328,0.260484 9.6941815,9.694184 0 0 1 0.195254,0.266965 9.6941815,9.694184 0 0 1 0.186617,0.273444 9.6941815,9.694184 0 0 1 0.176681,0.279924 9.6941815,9.694184 0 0 1 0.167178,0.285973 9.6941815,9.694184 0 0 1 0.157239,0.291156 9.6941815,9.694184 0 0 1 0.147307,0.296339 9.6941815,9.694184 0 0 1 0.136938,0.301523 9.6941815,9.694184 0 0 1 0.126572,0.305845 9.6941815,9.694184 0 0 1 0.116202,0.309731 9.6941815,9.694184 0 0 1 0.105404,0.31405 9.6941815,9.694184 0 0 1 0.09504,0.317074 9.6941815,9.694184 0 0 1 0.0838,0.3201 9.6941815,9.694184 0 0 1 0.073,0.323123 9.6941815,9.694184 0 0 1 0.06178,0.324851 9.6941815,9.694184 0 0 1 0.05054,0.327442 9.6941815,9.694184 0 0 1 0.03931,0.328305 9.6941815,9.694184 0 0 1 0.02851,0.330035 9.6941815,9.694184 0 0 1 0.01685,0.330466 9.6941815,9.694184 0 0 1 4.31e-4,0.0065 9.6941815,9.694184 0 0 0 0,4.32e-4 9.6941815,9.694184 0 0 0 0,4.31e-4 9.6941815,9.694184 0 0 0 0,4.3e-4 9.6941815,9.694184 0 0 0 0,4.34e-4 9.6941815,9.694184 0 0 0 0,4.32e-4 9.6941815,9.694184 0 0 0 0,4.31e-4 9.6941815,9.694184 0 0 0 0,4.34e-4 9.6941815,9.694184 0 0 0 0,4.3e-4 9.6941815,9.694184 0 0 0 0,4.32e-4 9.6941815,9.694184 0 0 0 0,4.34e-4 9.6941815,9.694184 0 0 0 0,4.31e-4 9.6941815,9.694184 0 0 0 0,4.31e-4 9.6941815,9.694184 0 0 0 0,4.33e-4 9.6941815,9.694184 0 0 0 0,4.32e-4 9.6941815,9.694184 0 0 0 0,4.31e-4 9.6941815,9.694184 0 0 0 0,4.31e-4 9.6941815,9.694184 0 0 1 4.32e-4,0.0065 9.6941815,9.694184 0 0 0 0,4.33e-4 9.6941815,9.694184 0 0 0 0,4.31e-4 9.6941815,9.694184 0 0 0 0,4.31e-4 9.6941815,9.694184 0 0 0 0,4.32e-4 9.6941815,9.694184 0 0 0 0,4.33e-4 9.6941815,9.694184 0 0 0 0,4.31e-4 9.6941815,9.694184 0 0 0 0,4.31e-4 9.6941815,9.694184 0 0 0 0,4.34e-4 9.6941815,9.694184 0 0 0 0,4.31e-4 9.6941815,9.694184 0 0 0 0,4.32e-4 9.6941815,9.694184 0 0 0 0,4.33e-4 9.6941815,9.694184 0 0 0 0,4.31e-4 9.6941815,9.694184 0 0 0 0,4.32e-4 9.6941815,9.694184 0 0 0 0,4.33e-4 9.6941815,9.694184 0 0 0 0,4.32e-4 9.6941815,9.694184 0 0 0 0,4.31e-4 9.6941815,9.694184 0 0 0 0,4.31e-4 9.6941815,9.694184 0 0 0 0,4.33e-4 9.6941815,9.694184 0 0 0 0,4.32e-4 9.6941815,9.694184 0 0 0 0,4.31e-4 9.6941815,9.694184 0 0 0 0,4.34e-4 9.6941815,9.694184 0 0 0 0,4.31e-4 9.6941815,9.694184 0 0 0 0,4.32e-4 9.6941815,9.694184 0 0 0 0,4.33e-4 9.6941815,9.694184 0 0 0 0,4.31e-4 9.6941815,9.694184 0 0 0 0,4.31e-4 9.6941815,9.694184 0 0 0 0,4.34e-4 9.6941815,9.694184 0 0 0 0,4.32e-4 9.6941815,9.694184 0 0 0 0,4.31e-4 9.6941815,9.694184 0 0 0 0,4.33e-4 9.6941815,9.694184 0 0 0 0,4.31e-4 9.6941815,9.694184 0 0 1 4.33e-4,0.0065 9.6941815,9.694184 0 0 0 0,4.31e-4 9.6941815,9.694184 0 0 0 0,4.31e-4 9.6941815,9.694184 0 0 0 0,4.32e-4 9.6941815,9.694184 0 0 0 0,4.33e-4 9.6941815,9.694184 0 0 0 0,4.32e-4 9.6941815,9.694184 0 0 0 0,4.31e-4 9.6941815,9.694184 0 0 0 0,4.33e-4 9.6941815,9.694184 0 0 0 0,4.31e-4 9.6941815,9.694184 0 0 0 0,4.32e-4 9.6941815,9.694184 0 0 0 0,4.34e-4 9.6941815,9.694184 0 0 0 0,4.31e-4 9.6941815,9.694184 0 0 0 0,4.31e-4 9.6941815,9.694184 0 0 0 0,4.33e-4 9.6941815,9.694184 0 0 0 0,4.32e-4 9.6941815,9.694184 0 0 0 0,4.31e-4 9.6941815,9.694184 0 0 1 4.31e-4,0.0069 9.6941815,9.694184 0 0 0 0,4.34e-4 9.6941815,9.694184 0 0 0 0,4.32e-4 9.6941815,9.694184 0 0 0 0,4.31e-4 9.6941815,9.694184 0 0 0 0,4.31e-4 9.6941815,9.694184 0 0 0 0,4.33e-4 9.6941815,9.694184 0 0 0 0,4.32e-4 9.6941815,9.694184 0 0 0 0,4.31e-4 9.6941815,9.694184 0 0 0 0,4.34e-4 9.6941815,9.694184 0 0 0 0,4.31e-4 9.6941815,9.694184 0 0 0 0,4.31e-4 9.6941815,9.694184 0 0 0 0,4.33e-4 9.6941815,9.694184 0 0 0 0,4.32e-4 9.6941815,9.694184 0 0 0 0,4.31e-4 9.6941815,9.694184 0 0 0 0,4.34e-4 9.6941815,9.694184 0 0 0 0,4.31e-4 9.6941815,9.694184 0 0 1 4.31e-4,0.0065 9.6941815,9.694184 0 0 0 0,4.31e-4 9.6941815,9.694184 0 0 0 0,4.31e-4 9.6941815,9.694184 0 0 0 0,4.33e-4 9.6941815,9.694184 0 0 0 0,4.32e-4 9.6941815,9.694184 0 0 0 0,4.31e-4 9.6941815,9.694184 0 0 0 0,4.31e-4 9.6941815,9.694184 0 0 0 0,4.34e-4 9.6941815,9.694184 0 0 0 0,4.32e-4 9.6941815,9.694184 0 0 0 0,4.31e-4 9.6941815,9.694184 0 0 0 0,4.33e-4 9.6941815,9.694184 0 0 0 0,4.31e-4 9.6941815,9.694184 0 0 0 0,4.32e-4 9.6941815,9.694184 0 0 0 0,4.33e-4 9.6941815,9.694184 0 0 0 0,4.32e-4 9.6941815,9.694184 0 0 0 0,4.3e-4 9.6941815,9.694184 0 0 1 4.32e-4,0.0069 9.6941815,9.694184 0 0 0 0,4.33e-4 9.6941815,9.694184 0 0 0 0,4.31e-4 9.6941815,9.694184 0 0 0 0,4.31e-4 9.6941815,9.694184 0 0 0 0,4.34e-4 9.6941815,9.694184 0 0 0 0,4.31e-4 9.6941815,9.694184 0 0 0 0,4.32e-4 9.6941815,9.694184 0 0 0 0,4.31e-4 9.6941815,9.694184 0 0 0 0,4.33e-4 9.6941815,9.694184 0 0 0 0,4.32e-4 9.6941815,9.694184 0 0 0 0,4.31e-4 9.6941815,9.694184 0 0 0 0,4.34e-4 9.6941815,9.694184 0 0 0 0,4.31e-4 9.6941815,9.694184 0 0 0 0,4.31e-4 9.6941815,9.694184 0 0 0 0,4.33e-4 9.6941815,9.694184 0 0 0 0,4.32e-4 9.6941815,9.694184 0 0 0 0,4.31e-4 9.6941815,9.694184 0 0 0 0,4.33e-4 9.6941815,9.694184 0 0 0 0,4.31e-4 9.6941815,9.694184 0 0 0 0,4.32e-4 9.6941815,9.694184 0 0 0 0,4.34e-4 9.6941815,9.694184 0 0 0 0,4.31e-4 9.6941815,9.694184 0 0 0 0,4.31e-4 9.6941815,9.694184 0 0 0 0,4.33e-4 9.6941815,9.694184 0 0 0 0,4.32e-4 9.6941815,9.694184 0 0 0 0,4.31e-4 9.6941815,9.694184 0 0 0 0,4.31e-4 9.6941815,9.694184 0 0 0 0,4.34e-4 9.6941815,9.694184 0 0 0 0,4.32e-4 9.6941815,9.694184 0 0 0 0,4.31e-4 9.6941815,9.694184 0 0 0 0,4.33e-4 9.6941815,9.694184 0 0 1 4.33e-4,0.0069 9.6941815,9.694184 0 0 0 0,4.32e-4 9.6941815,9.694184 0 0 0 0,4.31e-4 9.6941815,9.694184 0 0 0 0,4.34e-4 9.6941815,9.694184 0 0 0 0,4.31e-4 9.6941815,9.694184 0 0 0 0,4.31e-4 9.6941815,9.694184 0 0 0 0,4.33e-4 9.6941815,9.694184 0 0 0 0,4.32e-4 9.6941815,9.694184 0 0 0 0,4.31e-4 9.6941815,9.694184 0 0 0 0,4.34e-4 9.6941815,9.694184 0 0 0 0,4.31e-4 9.6941815,9.694184 0 0 0 0,4.32e-4 9.6941815,9.694184 0 0 0 0,4.31e-4 9.6941815,9.694184 0 0 0 0,4.33e-4 9.6941815,9.694184 0 0 0 0,4.31e-4 9.6941815,9.694184 0 0 0 0,4.32e-4 9.6941815,9.694184 0 0 0 0,4.34e-4 9.6941815,9.694184 0 0 0 0,4.31e-4 9.6941815,9.694184 0 0 0 0,4.31e-4 9.6941815,9.694184 0 0 0 0,4.33e-4 9.6941815,9.694184 0 0 0 0,4.32e-4 9.6941815,9.694184 0 0 0 0,4.31e-4 9.6941815,9.694184 0 0 0 0,4.34e-4 9.6941815,9.694184 0 0 0 0,4.31e-4 9.6941815,9.694184 0 0 0 0,4.31e-4 9.6941815,9.694184 0 0 0 0,4.31e-4 9.6941815,9.694184 0 0 0 0,4.34e-4 9.6941815,9.694184 0 0 0 0,4.31e-4 9.6941815,9.694184 0 0 0 0,4.32e-4 9.6941815,9.694184 0 0 0 0,4.33e-4 9.6941815,9.694184 0 0 0 0,4.31e-4 9.6941815,9.694184 0 0 1 4.32e-4,0.0069 9.6941815,9.694184 0 0 0 0,4.31e-4 9.6941815,9.694184 0 0 0 0,4.34e-4 9.6941815,9.694184 0 0 0 0,4.31e-4 9.6941815,9.694184 0 0 0 0,4.31e-4 9.6941815,9.694184 0 0 0 0,4.34e-4 9.6941815,9.694184 0 0 0 0,4.31e-4 9.6941815,9.694184 0 0 0 0,4.32e-4 9.6941815,9.694184 0 0 0 0,4.33e-4 9.6941815,9.694184 0 0 0 0,4.31e-4 9.6941815,9.694184 0 0 0 0,4.31e-4 9.6941815,9.694184 0 0 0 0,4.32e-4 9.6941815,9.694184 0 0 0 0,4.33e-4 9.6941815,9.694184 0 0 0 0,4.31e-4 9.6941815,9.694184 0 0 0 0,4.31e-4 9.6941815,9.694184 0 0 0 0,4.34e-4 9.6941815,9.694184 0 0 0 0,4.32e-4 9.6941815,9.694184 0 0 0 0,4.31e-4 9.6941815,9.694184 0 0 0 0,4.33e-4 9.6941815,9.694184 0 0 0 0,4.31e-4 9.6941815,9.694184 0 0 0 0,4.32e-4 9.6941815,9.694184 0 0 0 0,4.34e-4 9.6941815,9.694184 0 0 0 0,4.31e-4 9.6941815,9.694184 0 0 0 0,4.31e-4 9.6941815,9.694184 0 0 0 0,4.33e-4 9.6941815,9.694184 0 0 0 0,4.32e-4 9.6941815,9.694184 0 0 0 0,4.31e-4 9.6941815,9.694184 0 0 0 0,4.34e-4 9.6941815,9.694184 0 0 0 0,4.31e-4 9.6941815,9.694184 0 0 0 0,4.31e-4 9.6941815,9.694184 0 0 0 0,4.32e-4 9.6941815,9.694184 0 0 1 4.31e-4,0.0069 9.6941815,9.694184 0 0 0 0,4.33e-4 9.6941815,9.694184 0 0 0 0,4.31e-4 9.6941815,9.694184 0 0 0 0,4.32e-4 9.6941815,9.694184 0 0 0 0,4.34e-4 9.6941815,9.694184 0 0 0 0,4.31e-4 9.6941815,9.694184 0 0 0 0,4.31e-4 9.6941815,9.694184 0 0 0 0,4.33e-4 9.6941815,9.694184 0 0 0 0,4.32e-4 9.6941815,9.694184 0 0 0 0,4.31e-4 9.6941815,9.694184 0 0 0 0,4.34e-4 9.6941815,9.694184 0 0 0 0,4.31e-4 9.6941815,9.694184 0 0 0 0,4.32e-4 9.6941815,9.694184 0 0 0 0,4.33e-4 9.6941815,9.694184 0 0 0 0,4.31e-4 9.6941815,9.694184 0 0 0 0,4.31e-4 9.6941815,9.694184 0 0 0 0,4.32e-4 9.6941815,9.694184 0 0 0 0,4.33e-4 9.6941815,9.694184 0 0 0 0,4.32e-4 9.6941815,9.694184 0 0 0 0,4.31e-4 9.6941815,9.694184 0 0 0 0,4.33e-4 9.6941815,9.694184 0 0 0 0,4.32e-4 9.6941815,9.694184 0 0 0 0,4.31e-4 9.6941815,9.694184 0 0 0 0,4.34e-4 9.6941815,9.694184 0 0 0 0,4.3e-4 9.6941815,9.694184 0 0 0 0,4.32e-4 9.6941815,9.694184 0 0 0 0,4.33e-4 9.6941815,9.694184 0 0 0 0,4.32e-4 9.6941815,9.694184 0 0 0 0,4.31e-4 9.6941815,9.694184 0 0 0 0,4.31e-4 9.6941815,9.694184 0 0 0 0,4.33e-4 9.6941815,9.694184 0 0 1 4.33e-4,0.0069 9.6941815,9.694184 0 0 0 0,4.31e-4 9.6941815,9.694184 0 0 0 0,4.31e-4 9.6941815,9.694184 0 0 0 0,4.33e-4 9.6941815,9.694184 0 0 0 0,4.32e-4 9.6941815,9.694184 0 0 0 0,4.31e-4 9.6941815,9.694184 0 0 0 0,4.34e-4 9.6941815,9.694184 0 0 0 0,4.3e-4 9.6941815,9.694184 0 0 0 0,4.32e-4 9.6941815,9.694184 0 0 0 0,4.34e-4 9.6941815,9.694184 0 0 0 0,4.31e-4 9.6941815,9.694184 0 0 0 0,4.31e-4 9.6941815,9.694184 0 0 0 0,4.33e-4 9.6941815,9.694184 0 0 0 0,4.32e-4 9.6941815,9.694184 0 0 0 0,4.31e-4 9.6941815,9.694184 0 0 0 0,4.31e-4 9.6941815,9.694184 0 0 0 0,4.34e-4 9.6941815,9.694184 0 0 0 0,4.32e-4 9.6941815,9.694184 0 0 0 0,4.31e-4 9.6941815,9.694184 0 0 0 0,4.33e-4 9.6941815,9.694184 0 0 0 0,4.31e-4 9.6941815,9.694184 0 0 0 0,4.32e-4 9.6941815,9.694184 0 0 0 0,4.33e-4 9.6941815,9.694184 0 0 0 0,4.32e-4 9.6941815,9.694184 0 0 0 0,4.31e-4 9.6941815,9.694184 0 0 0 0,4.33e-4 9.6941815,9.694184 0 0 0 0,4.32e-4 9.6941815,9.694184 0 0 0 0,4.31e-4 9.6941815,9.694184 0 0 0 0,4.34e-4 9.6941815,9.694184 0 0 0 0,4.31e-4 9.6941815,9.694184 0 0 0 0,4.31e-4 9.6941815,9.694184 0 0 0 0,4.33e-4 9.6941815,9.694184 0 0 0 0,4.32e-4 9.6941815,9.694184 0 0 0 0,4.31e-4 9.6941815,9.694184 0 0 0 0,4.31e-4 9.6941815,9.694184 0 0 0 0,4.34e-4 9.6941815,9.694184 0 0 0 0,4.31e-4 9.6941815,9.694184 0 0 0 0,4.31e-4 9.6941815,9.694184 0 0 0 0,4.34e-4 9.6941815,9.694184 0 0 0 0,4.31e-4 9.6941815,9.694184 0 0 0 0,4.32e-4 9.6941815,9.694184 0 0 0 0,4.33e-4 9.6941815,9.694184 0 0 0 0,4.31e-4 9.6941815,9.694184 0 0 0 0,4.31e-4 9.6941815,9.694184 0 0 0 0,4.34e-4 9.6941815,9.694184 0 0 0 0,4.32e-4 9.6941815,9.694184 0 0 0 0,4.31e-4 9.6941815,9.694184 0 0 1 4.31e-4,0.0065 9.6941815,9.694184 0 0 0 0,4.32e-4 9.6941815,9.694184 0 0 0 0,4.33e-4 9.6941815,9.694184 0 0 0 0,4.32e-4 9.6941815,9.694184 0 0 0 0,4.3e-4 9.6941815,9.694184 0 0 0 0,4.32e-4 9.6941815,9.694184 0 0 0 0,4.33e-4 9.6941815,9.694184 0 0 0 0,4.32e-4 9.6941815,9.694184 0 0 0 0,4.31e-4 9.6941815,9.694184 0 0 0 0,4.33e-4 9.6941815,9.694184 0 0 0 0,4.32e-4 9.6941815,9.694184 0 0 0 0,4.31e-4 9.6941815,9.694184 0 0 0 0,4.34e-4 9.6941815,9.694184 0 0 0 0,4.31e-4 9.6941815,9.694184 0 0 0 0,4.31e-4 9.6941815,9.694184 0 0 0 0,4.33e-4 9.6941815,9.694184 0 0 0 0,4.32e-4 9.6941815,9.694184 0 0 0 0,4.31e-4 9.6941815,9.694184 0 0 0 0,4.31e-4 9.6941815,9.694184 0 0 0 0,4.34e-4 9.6941815,9.694184 0 0 0 0,4.32e-4 9.6941815,9.694184 0 0 0 0,4.31e-4 9.6941815,9.694184 0 0 0 0,4.33e-4 9.6941815,9.694184 0 0 0 0,4.31e-4 9.6941815,9.694184 0 0 0 0,4.32e-4 9.6941815,9.694184 0 0 0 0,4.34e-4 9.6941815,9.694184 0 0 0 0,4.31e-4 9.6941815,9.694184 0 0 0 0,4.31e-4 9.6941815,9.694184 0 0 0 0,4.33e-4 9.6941815,9.694184 0 0 0 0,4.32e-4 9.6941815,9.694184 0 0 0 0,4.31e-4 9.6941815,9.694184 0 0 0 0,4.34e-4 9.6941815,9.694184 0 0 0 0,4.31e-4 9.6941815,9.694184 0 0 0 0,4.31e-4 9.6941815,9.694184 0 0 0 0,4.33e-4 9.6941815,9.694184 0 0 0 0,4.32e-4 9.6941815,9.694184 0 0 0 0,4.31e-4 9.6941815,9.694184 0 0 0 0,4.31e-4 9.6941815,9.694184 0 0 0 0,4.34e-4 9.6941815,9.694184 0 0 0 0,4.31e-4 9.6941815,9.694184 0 0 0 0,4.31e-4 9.6941815,9.694184 0 0 0 0,4.34e-4 9.6941815,9.694184 0 0 0 0,4.31e-4 9.6941815,9.694184 0 0 0 0,4.32e-4 9.6941815,9.694184 0 0 0 0,4.33e-4 9.6941815,9.694184 0 0 0 0,4.31e-4 9.6941815,9.694184 0 0 0 0,4.31e-4 9.6941815,9.694184 0 0 0 0,4.34e-4 9.6941815,9.694184 0 0 0 0,4.32e-4 9.6941815,9.694184 0 0 0 0,4.31e-4 9.6941815,9.694184 0 0 0 0,4.31e-4 9.6941815,9.694184 0 0 0 0,4.33e-4 9.6941815,9.694184 0 0 0 0,4.32e-4 9.6941815,9.694184 0 0 0 0,4.31e-4 9.6941815,9.694184 0 0 0 0,4.34e-4 9.6941815,9.694184 0 0 0 0,4.31e-4 9.6941815,9.694184 0 0 0 0,4.32e-4 9.6941815,9.694184 0 0 0 0,4.33e-4 9.6941815,9.694184 0 0 0 0,4.31e-4 9.6941815,9.694184 0 0 0 0,4.31e-4 9.6941815,9.694184 0 0 0 0,4.34e-4 9.6941815,9.694184 0 0 0 0,4.31e-4 9.6941815,9.694184 0 0 1 4.32e-4,0.0069 9.6941815,9.694184 0 0 0 0,4.31e-4 9.6941815,9.694184 0 0 0 0,4.33e-4 9.6941815,9.694184 0 0 0 0,4.31e-4 9.6941815,9.694184 0 0 0 0,4.32e-4 9.6941815,9.694184 0 0 0 0,4.31e-4 9.6941815,9.694184 0 0 0 0,4.34e-4 9.6941815,9.694184 0 0 0 0,4.31e-4 9.6941815,9.694184 0 0 0 0,4.32e-4 9.6941815,9.694184 0 0 0 0,4.33e-4 9.6941815,9.694184 0 0 0 0,4.31e-4 9.6941815,9.694184 0 0 0 0,4.31e-4 9.6941815,9.694184 0 0 0 0,4.34e-4 9.6941815,9.694184 0 0 0 0,4.32e-4 9.6941815,9.694184 0 0 0 0,4.3e-4 9.6941815,9.694184 0 0 0 0,4.34e-4 9.6941815,9.694184 0 0 0 0,4.31e-4 9.6941815,9.694184 0 0 0 0,4.32e-4 9.6941815,9.694184 0 0 0 0,4.33e-4 9.6941815,9.694184 0 0 0 0,4.31e-4 9.6941815,9.694184 0 0 0 0,4.31e-4 9.6941815,9.694184 0 0 0 0,4.34e-4 9.6941815,9.694184 0 0 0 0,4.31e-4 9.6941815,9.694184 0 0 0 0,4.32e-4 9.6941815,9.694184 0 0 0 0,4.31e-4 9.6941815,9.694184 0 0 0 0,4.33e-4 9.6941815,9.694184 0 0 0 0,4.32e-4 9.6941815,9.694184 0 0 0 0,4.31e-4 9.6941815,9.694184 0 0 0 0,4.34e-4 9.6941815,9.694184 0 0 0 0,4.31e-4 9.6941815,9.694184 0 0 0 0,4.31e-4 9.6941815,9.694184 0 0 0 0,4.33e-4 9.6941815,9.694184 0 0 0 0,4.32e-4 9.6941815,9.694184 0 0 0 0,4.31e-4 9.6941815,9.694184 0 0 0 0,4.34e-4 9.6941815,9.694184 0 0 0 0,4.31e-4 9.6941815,9.694184 0 0 0 0,4.32e-4 9.6941815,9.694184 0 0 0 0,4.31e-4 9.6941815,9.694184 0 0 0 0,4.33e-4 9.6941815,9.694184 0 0 0 0,4.31e-4 9.6941815,9.694184 0 0 0 0,4.32e-4 9.6941815,9.694184 0 0 0 0,4.34e-4 9.6941815,9.694184 0 0 0 0,4.31e-4 9.6941815,9.694184 0 0 0 0,4.3e-4 9.6941815,9.694184 0 0 0 0,4.34e-4 9.6941815,9.694184 0 0 0 0,4.32e-4 9.6941815,9.694184 0 0 0 0,4.31e-4 9.6941815,9.694184 0 0 0 0,4.34e-4 9.6941815,9.694184 0 0 0 0,4.3e-4 9.6941815,9.694184 0 0 0 0,4.32e-4 9.6941815,9.694184 0 0 0 0,4.33e-4 9.6941815,9.694184 0 0 0 0,4.32e-4 9.6941815,9.694184 0 0 0 0,4.31e-4 9.6941815,9.694184 0 0 0 0,4.33e-4 9.6941815,9.694184 0 0 0 0,4.32e-4 9.6941815,9.694184 0 0 0 0,4.31e-4 9.6941815,9.694184 0 0 0 0,4.31e-4 9.6941815,9.694184 0 0 0 0,4.34e-4 9.6941815,9.694184 0 0 0 0,4.31e-4 9.6941815,9.694184 0 0 0 0,4.32e-4 9.6941815,9.694184 0 0 0 0,4.33e-4 9.6941815,9.694184 0 0 0 0,4.31e-4 9.6941815,9.694184 0 0 0 0,4.31e-4 9.6941815,9.694184 0 0 0 0,4.34e-4 9.6941815,9.694184 0 0 0 0,4.32e-4 9.6941815,9.694184 0 0 0 0,4.31e-4 9.6941815,9.694184 0 0 0 0,4.33e-4 9.6941815,9.694184 0 0 0 0,4.31e-4 9.6941815,9.694184 0 0 0 0,4.32e-4 9.6941815,9.694184 0 0 0 0,4.31e-4 9.6941815,9.694184 0 0 0 0,4.34e-4 9.6941815,9.694184 0 0 0 0,4.31e-4 9.6941815,9.694184 0 0 0 0,4.31e-4 9.6941815,9.694184 0 0 0 0,4.34e-4 9.6941815,9.694184 0 0 0 0,4.31e-4 9.6941815,9.694184 0 0 0 0,4.31e-4 9.6941815,9.694184 0 0 0 0,4.34e-4 9.6941815,9.694184 0 0 0 0,4.31e-4 9.6941815,9.694184 0 0 0 0,4.31e-4 9.6941815,9.694184 0 0 0 0,4.34e-4 9.6941815,9.694184 0 0 0 0,4.31e-4 9.6941815,9.694184 0 0 0 0,4.32e-4 9.6941815,9.694184 0 0 0 0,4.33e-4 9.6941815,9.694184 0 0 0 0,4.31e-4 9.6941815,9.694184 0 0 0 0,4.31e-4 9.6941815,9.694184 0 0 0 0,4.34e-4 9.6941815,9.694184 0 0 0 0,4.31e-4 9.6941815,9.694184 0 0 0 0,4.32e-4 9.6941815,9.694184 0 0 0 0,4.31e-4 9.6941815,9.694184 0 0 0 0,4.33e-4 9.6941815,9.694184 0 0 0 0,4.31e-4 9.6941815,9.694184 0 0 0 0,4.32e-4 9.6941815,9.694184 0 0 0 0,4.34e-4 9.6941815,9.694184 0 0 0 0,4.31e-4 9.6941815,9.694184 0 0 0 0,4.31e-4 9.6941815,9.694184 0 0 0 0,4.33e-4 9.6941815,9.694184 0 0 0 0,4.32e-4 9.6941815,9.694184 0 0 0 0,4.31e-4 9.6941815,9.694184 0 0 0 0,4.34e-4 9.6941815,9.694184 0 0 0 0,4.31e-4 9.6941815,9.694184 0 0 0 0,4.32e-4 9.6941815,9.694184 0 0 0 0,4.3e-4 9.6941815,9.694184 0 0 0 0,4.34e-4 9.6941815,9.694184 0 0 0 0,4.31e-4 9.6941815,9.694184 0 0 0 0,4.32e-4 9.6941815,9.694184 0 0 0 0,4.33e-4 9.6941815,9.694184 0 0 0 0,4.31e-4 9.6941815,9.694184 0 0 0 0,4.31e-4 9.6941815,9.694184 0 0 1 4.34e-4,0.0065 9.6941815,9.694184 0 0 0 0,4.31e-4 9.6941815,9.694184 0 0 0 0,4.33e-4 9.6941815,9.694184 0 0 0 0,4.31e-4 9.6941815,9.694184 0 0 0 0,4.32e-4 9.6941815,9.694184 0 0 0 0,4.34e-4 9.6941815,9.694184 0 0 0 0,4.31e-4 9.6941815,9.694184 0 0 0 0,4.31e-4 9.6941815,9.694184 0 0 0 0,4.33e-4 9.6941815,9.694184 0 0 0 0,4.32e-4 9.6941815,9.694184 0 0 0 0,4.31e-4 9.6941815,9.694184 0 0 0 0,4.31e-4 9.6941815,9.694184 0 0 0 0,4.34e-4 9.6941815,9.694184 0 0 0 0,4.31e-4 9.6941815,9.694184 0 0 0 0,4.31e-4 9.6941815,9.694184 0 0 0 0,4.34e-4 9.6941815,9.694184 0 0 0 0,4.31e-4 9.6941815,9.694184 0 0 0 0,4.31e-4 9.6941815,9.694184 0 0 0 0,4.33e-4 9.6941815,9.694184 0 0 0 0,4.32e-4 9.6941815,9.694184 0 0 0 0,4.31e-4 9.6941815,9.694184 0 0 0 0,4.34e-4 9.6941815,9.694184 0 0 0 0,4.31e-4 9.6941815,9.694184 0 0 0 0,4.32e-4 9.6941815,9.694184 0 0 0 0,4.33e-4 9.6941815,9.694184 0 0 0 0,4.31e-4 9.6941815,9.694184 0 0 0 0,4.31e-4 9.6941815,9.694184 0 0 0 0,4.34e-4 9.6941815,9.694184 0 0 0 0,4.32e-4 9.6941815,9.694184 0 0 0 0,4.31e-4 9.6941815,9.694184 0 0 0 0,4.31e-4 9.6941815,9.694184 0 0 0 0,4.33e-4 9.6941815,9.694184 0 0 0 0,4.32e-4 9.6941815,9.694184 0 0 0 0,4.31e-4 9.6941815,9.694184 0 0 0 0,4.34e-4 9.6941815,9.694184 0 0 0 0,4.31e-4 9.6941815,9.694184 0 0 0 0,4.32e-4 9.6941815,9.694184 0 0 0 0,4.33e-4 9.6941815,9.694184 0 0 0 0,4.31e-4 9.6941815,9.694184 0 0 0 0,4.31e-4 9.6941815,9.694184 0 0 0 0,4.34e-4 9.6941815,9.694184 0 0 0 0,4.31e-4 9.6941815,9.694184 0 0 0 0,4.31e-4 9.6941815,9.694184 0 0 0 0,4.31e-4 9.6941815,9.694184 0 0 0 0,4.34e-4 9.6941815,9.694184 0 0 0 0,4.31e-4 9.6941815,9.694184 0 0 0 0,4.32e-4 9.6941815,9.694184 0 0 0 0,4.33e-4 9.6941815,9.694184 0 0 0 0,4.31e-4 9.6941815,9.694184 0 0 0 0,4.32e-4 9.6941815,9.694184 0 0 0 0,4.33e-4 9.6941815,9.694184 0 0 0 0,4.32e-4 9.6941815,9.694184 0 0 0 0,4.31e-4 9.6941815,9.694184 0 0 0 0,4.33e-4 9.6941815,9.694184 0 0 0 0,4.31e-4 9.6941815,9.694184 0 0 0 0,4.32e-4 9.6941815,9.694184 0 0 0 0,4.34e-4 9.6941815,9.694184 0 0 0 0,4.31e-4 9.6941815,9.694184 0 0 0 0,4.31e-4 9.6941815,9.694184 0 0 0 0,4.33e-4 9.6941815,9.694184 0 0 0 0,4.32e-4 9.6941815,9.694184 0 0 0 0,4.31e-4 9.6941815,9.694184 0 0 0 0,4.31e-4 9.6941815,9.694184 0 0 0 0,4.34e-4 9.6941815,9.694184 0 0 0 0,4.32e-4 9.6941815,9.694184 0 0 0 0,4.31e-4 9.6941815,9.694184 0 0 0 0,4.33e-4 9.6941815,9.694184 0 0 0 0,4.31e-4 9.6941815,9.694184 0 0 0 0,4.32e-4 9.6941815,9.694184 0 0 0 0,4.33e-4 9.6941815,9.694184 0 0 0 0,4.32e-4 9.6941815,9.694184 0 0 0 0,4.3e-4 9.6941815,9.694184 0 0 0 0,4.34e-4 9.6941815,9.694184 0 0 0 0,4.31e-4 9.6941815,9.694184 0 0 0 0,4.32e-4 9.6941815,9.694184 0 0 0 0,4.31e-4 9.6941815,9.694184 0 0 0 0,4.33e-4 9.6941815,9.694184 0 0 0 0,4.32e-4 9.6941815,9.694184 0 0 0 0,4.31e-4 9.6941815,9.694184 0 0 0 0,4.34e-4 9.6941815,9.694184 0 0 0 0,4.31e-4 9.6941815,9.694184 0 0 0 0,4.31e-4 9.6941815,9.694184 0 0 0 0,4.33e-4 9.6941815,9.694184 0 0 0 0,4.32e-4 9.6941815,9.694184 0 0 0 0,4.31e-4 9.6941815,9.694184 0 0 0 0,4.34e-4 9.6941815,9.694184 0 0 0 0,4.31e-4 9.6941815,9.694184 0 0 0 0,4.32e-4 9.6941815,9.694184 0 0 0 0,4.33e-4 9.6941815,9.694184 0 0 0 0,4.31e-4 9.6941815,9.694184 0 0 0 0,4.31e-4 9.6941815,9.694184 0 0 0 0,4.34e-4 9.6941815,9.694184 0 0 0 0,4.32e-4 9.6941815,9.694184 0 0 0 0,4.31e-4 9.6941815,9.694184 0 0 0 0,4.31e-4 9.6941815,9.694184 0 0 0 0,4.33e-4 9.6941815,9.694184 0 0 0 0,4.32e-4 9.6941815,9.694184 0 0 0 0,4.31e-4 9.6941815,9.694184 0 0 0 0,4.34e-4 9.6941815,9.694184 0 0 0 0,4.31e-4 9.6941815,9.694184 0 0 0 0,4.31e-4 9.6941815,9.694184 0 0 0 0,4.33e-4 9.6941815,9.694184 0 0 0 0,4.32e-4 9.6941815,9.694184 0 0 0 0,4.31e-4 9.6941815,9.694184 0 0 0 0,4.34e-4 9.6941815,9.694184 0 0 0 0,4.31e-4 9.6941815,9.694184 0 0 0 0,4.31e-4 9.6941815,9.694184 0 0 0 0,4.31e-4 9.6941815,9.694184 0 0 0 0,4.34e-4 9.6941815,9.694184 0 0 0 0,4.31e-4 9.6941815,9.694184 0 0 0 0,4.32e-4 9.6941815,9.694184 0 0 0 0,4.33e-4 9.6941815,9.694184 0 0 0 0,4.31e-4 9.6941815,9.694184 0 0 0 0,4.31e-4 9.6941815,9.694184 0 0 0 0,4.34e-4 9.6941815,9.694184 0 0 0 0,4.32e-4 9.6941815,9.694184 0 0 0 0,4.31e-4 9.6941815,9.694184 0 0 0 0,4.33e-4 9.6941815,9.694184 0 0 0 0,4.31e-4 9.6941815,9.694184 0 0 0 0,4.32e-4 9.6941815,9.694184 0 0 0 0,4.34e-4 9.6941815,9.694184 0 0 0 0,4.31e-4 9.6941815,9.694184 0 0 0 0,4.31e-4 9.6941815,9.694184 0 0 0 0,4.33e-4 9.6941815,9.694184 0 0 0 0,4.32e-4 9.6941815,9.694184 0 0 0 0,4.31e-4 9.6941815,9.694184 0 0 0 0,4.31e-4 9.6941815,9.694184 0 0 0 0,4.34e-4 9.6941815,9.694184 0 0 0 0,4.31e-4 9.6941815,9.694184 0 0 0 0,4.31e-4 9.6941815,9.694184 0 0 0 0,4.34e-4 9.6941815,9.694184 0 0 0 0,4.31e-4 9.6941815,9.694184 0 0 0 0,4.31e-4 9.6941815,9.694184 0 0 0 0,4.34e-4 9.6941815,9.694184 0 0 0 0,4.31e-4 9.6941815,9.694184 0 0 0 0,4.31e-4 9.6941815,9.694184 0 0 0 0,4.34e-4 9.6941815,9.694184 0 0 0 0,4.31e-4 9.6941815,9.694184 0 0 0 0,4.32e-4 9.6941815,9.694184 0 0 0 0,4.31e-4 9.6941815,9.694184 0 0 0 0,4.33e-4 9.6941815,9.694184 0 0 0 0,4.31e-4 9.6941815,9.694184 0 0 0 0,4.32e-4 9.6941815,9.694184 0 0 0 0,4.34e-4 9.6941815,9.694184 0 0 1 0,8.36e-4 9.6941815,9.694184 0 0 0 0,4.33e-4 9.6941815,9.694184 0 0 0 0,4.31e-4 9.6941815,9.694184 0 0 0 0,4.31e-4 9.6941815,9.694184 0 0 0 0,4.34e-4 9.6941815,9.694184 0 0 0 0,4.31e-4 9.6941815,9.694184 0 0 0 0,4.32e-4 9.6941815,9.694184 0 0 0 0,4.33e-4 9.6941815,9.694184 0 0 0 0,4.31e-4 9.6941815,9.694184 0 0 0 0,4.31e-4 9.6941815,9.694184 0 0 1 0,8.36e-4 9.6941815,9.694184 0 0 0 0,4.32e-4 9.6941815,9.694184 0 0 0 0,4.3e-4 9.6941815,9.694184 0 0 0 0,4.34e-4 9.6941815,9.694184 0 0 0 0,4.31e-4 9.6941815,9.694184 0 0 0 0,4.32e-4 9.6941815,9.694184 0 0 0 0,4.34e-4 9.6941815,9.694184 0 0 0 0,4.3e-4 9.6941815,9.694184 0 0 0 0,4.32e-4 9.6941815,9.694184 0 0 0 0,4.33e-4 9.6941815,9.694184 0 0 1 0,8.36e-4 9.6941815,9.694184 0 0 0 0,4.33e-4 9.6941815,9.694184 0 0 0 0,4.32e-4 9.6941815,9.694184 0 0 0 0,4.31e-4 9.6941815,9.694184 0 0 0 0,4.31e-4 9.6941815,9.694184 0 0 0 0,4.34e-4 9.6941815,9.694184 0 0 0 0,4.32e-4 9.6941815,9.694184 0 0 0 0,4.31e-4 9.6941815,9.694184 0 0 0 0,4.33e-4 9.6941815,9.694184 0 0 0 0,4.31e-4 9.6941815,9.694184 0 0 1 0,8.36e-4 9.6941815,9.694184 0 0 0 0,4.32e-4 9.6941815,9.694184 0 0 0 0,4.31e-4 9.6941815,9.694184 0 0 0 0,4.33e-4 9.6941815,9.694184 0 0 0 0,4.31e-4 9.6941815,9.694184 0 0 0 0,4.32e-4 9.6941815,9.694184 0 0 0 0,4.33e-4 9.6941815,9.694184 0 0 0 0,4.32e-4 9.6941815,9.694184 0 0 0 0,4.31e-4 9.6941815,9.694184 0 0 0 0,4.33e-4 9.6941815,9.694184 0 0 0 0,4.31e-4 9.6941815,9.694184 0 0 1 0,8.36e-4 9.6941815,9.694184 0 0 0 0,4.34e-4 9.6941815,9.694184 0 0 0 0,4.31e-4 9.6941815,9.694184 0 0 0 0,4.31e-4 9.6941815,9.694184 0 0 0 0,4.34e-4 9.6941815,9.694184 0 0 0 0,4.31e-4 9.6941815,9.694184 0 0 0 0,4.32e-4 9.6941815,9.694184 0 0 0 0,4.33e-4 9.6941815,9.694184 0 0 0 0,4.31e-4 9.6941815,9.694184 0 0 0 0,4.31e-4 9.6941815,9.694184 0 0 1 0,8.36e-4 9.6941815,9.694184 0 0 0 0,4.32e-4 9.6941815,9.694184 0 0 0 0,4.31e-4 9.6941815,9.694184 0 0 0 0,4.33e-4 9.6941815,9.694184 0 0 0 0,4.31e-4 9.6941815,9.694184 0 0 0 0,4.32e-4 9.6941815,9.694184 0 0 0 0,4.34e-4 9.6941815,9.694184 0 0 0 0,4.31e-4 9.6941815,9.694184 0 0 0 0,4.31e-4 9.6941815,9.694184 0 0 0 0,4.33e-4 9.6941815,9.694184 0 0 1 0,8.36e-4 9.6941815,9.694184 0 0 0 0,4.34e-4 9.6941815,9.694184 0 0 0 0,4.31e-4 9.6941815,9.694184 0 0 0 0,4.32e-4 9.6941815,9.694184 0 0 0 0,4.33e-4 9.6941815,9.694184 0 0 0 0,4.31e-4 9.6941815,9.694184 0 0 0 0,4.31e-4 9.6941815,9.694184 0 0 0 0,4.34e-4 9.6941815,9.694184 0 0 0 0,4.32e-4 9.6941815,9.694184 0 0 0 0,4.3e-4 9.6941815,9.694184 0 0 1 0,8.36e-4 9.6941815,9.694184 0 0 0 0,4.31e-4 9.6941815,9.694184 0 0 0 0,4.32e-4 9.6941815,9.694184 0 0 0 0,4.33e-4 9.6941815,9.694184 0 0 0 0,4.31e-4 9.6941815,9.694184 0 0 0 0,4.31e-4 9.6941815,9.694184 0 0 0 0,4.34e-4 9.6941815,9.694184 0 0 0 0,4.32e-4 9.6941815,9.694184 0 0 0 0,4.31e-4 9.6941815,9.694184 0 0 0 0,4.33e-4 9.6941815,9.694184 0 0 0 0,4.31e-4 9.6941815,9.694184 0 0 1 0,8.36e-4 9.6941815,9.694184 0 0 0 0,4.34e-4 9.6941815,9.694184 0 0 0 0,4.31e-4 9.6941815,9.694184 0 0 0 0,4.32e-4 9.6941815,9.694184 0 0 0 0,4.33e-4 9.6941815,9.694184 0 0 0 0,4.31e-4 9.6941815,9.694184 0 0 0 0,4.31e-4 9.6941815,9.694184 0 0 0 0,4.34e-4 9.6941815,9.694184 0 0 0 0,4.32e-4 9.6941815,9.694184 0 0 0 0,4.31e-4 9.6941815,9.694184 0 0 1 0,8.36e-4 9.6941815,9.694184 0 0 0 0,4.31e-4 9.6941815,9.694184 0 0 0 0,4.34e-4 9.6941815,9.694184 0 0 0 0,4.31e-4 9.6941815,9.694184 0 0 0 0,4.31e-4 9.6941815,9.694184 0 0 0 0,4.34e-4 9.6941815,9.694184 0 0 0 0,4.31e-4 9.6941815,9.694184 0 0 0 0,4.32e-4 9.6941815,9.694184 0 0 0 0,4.31e-4 9.6941815,9.694184 0 0 0 0,4.33e-4 9.6941815,9.694184 0 0 1 0,8.36e-4 9.6941815,9.694184 0 0 0 0,4.34e-4 9.6941815,9.694184 0 0 0 0,4.31e-4 9.6941815,9.694184 0 0 0 0,4.31e-4 9.6941815,9.694184 0 0 0 0,4.33e-4 9.6941815,9.694184 0 0 0 0,4.32e-4 9.6941815,9.694184 0 0 0 0,4.31e-4 9.6941815,9.694184 0 0 0 0,4.34e-4 9.6941815,9.694184 0 0 0 0,4.31e-4 9.6941815,9.694184 0 0 0 0,4.32e-4 9.6941815,9.694184 0 0 1 0,8.36e-4 9.6941815,9.694184 0 0 0 0,4.31e-4 9.6941815,9.694184 0 0 0 0,4.31e-4 9.6941815,9.694184 0 0 0 0,4.34e-4 9.6941815,9.694184 0 0 0 0,4.31e-4 9.6941815,9.694184 0 0 0 0,4.32e-4 9.6941815,9.694184 0 0 1 -4.34e-4,0.01944 9.6941815,9.694184 0 0 0 0,4.33e-4 9.6941815,9.694184 0 0 0 0,4.32e-4 9.6941815,9.694184 0 0 0 0,4.31e-4 9.6941815,9.694184 0 0 0 0,4.34e-4 9.6941815,9.694184 0 0 0 0,4.31e-4 9.6941815,9.694184 0 0 1 0,8.36e-4 9.6941815,9.694184 0 0 0 0,4.31e-4 9.6941815,9.694184 0 0 0 0,4.32e-4 9.6941815,9.694184 0 0 0 0,4.34e-4 9.6941815,9.694184 0 0 0 0,4.31e-4 9.6941815,9.694184 0 0 0 0,4.31e-4 9.6941815,9.694184 0 0 0 0,4.32e-4 9.6941815,9.694184 0 0 0 0,4.33e-4 9.6941815,9.694184 0 0 0 0,4.31e-4 9.6941815,9.694184 0 0 0 0,4.31e-4 9.6941815,9.694184 0 0 1 0,8.36e-4 9.6941815,9.694184 0 0 0 0,4.31e-4 9.6941815,9.694184 0 0 0 0,4.34e-4 9.6941815,9.694184 0 0 0 0,4.31e-4 9.6941815,9.694184 0 0 0 0,4.31e-4 9.6941815,9.694184 0 0 0 0,4.33e-4 9.6941815,9.694184 0 0 0 0,4.32e-4 9.6941815,9.694184 0 0 0 0,4.31e-4 9.6941815,9.694184 0 0 0 0,4.34e-4 9.6941815,9.694184 0 0 0 0,4.31e-4 9.6941815,9.694184 0 0 1 0,8.36e-4 9.6941815,9.694184 0 0 0 0,4.32e-4 9.6941815,9.694184 0 0 0 0,4.31e-4 9.6941815,9.694184 0 0 0 0,4.31e-4 9.6941815,9.694184 0 0 0 0,4.34e-4 9.6941815,9.694184 0 0 0 0,4.31e-4 9.6941815,9.694184 0 0 0 0,4.32e-4 9.6941815,9.694184 0 0 0 0,4.33e-4 9.6941815,9.694184 0 0 0 0,4.31e-4 9.6941815,9.694184 0 0 0 0,4.31e-4 9.6941815,9.694184 0 0 1 0,8.36e-4 9.6941815,9.694184 0 0 0 0,4.32e-4 9.6941815,9.694184 0 0 0 0,4.33e-4 9.6941815,9.694184 0 0 0 0,4.31e-4 9.6941815,9.694184 0 0 0 0,4.31e-4 9.6941815,9.694184 0 0 0 0,4.32e-4 9.6941815,9.694184 0 0 1 -4.32e-4,0.01944 9.6941815,9.694184 0 0 0 0,4.31e-4 9.6941815,9.694184 0 0 0 0,4.31e-4 9.6941815,9.694184 0 0 0 0,4.33e-4 9.6941815,9.694184 0 0 0 0,4.32e-4 9.6941815,9.694184 0 0 0 0,4.31e-4 9.6941815,9.694184 0 0 1 0,8.36e-4 9.6941815,9.694184 0 0 0 0,4.31e-4 9.6941815,9.694184 0 0 0 0,4.32e-4 9.6941815,9.694184 0 0 0 0,4.33e-4 9.6941815,9.694184 0 0 0 0,4.31e-4 9.6941815,9.694184 0 0 0 0,4.31e-4 9.6941815,9.694184 0 0 0 0,4.34e-4 9.6941815,9.694184 0 0 0 0,4.32e-4 9.6941815,9.694184 0 0 0 0,4.31e-4 9.6941815,9.694184 0 0 0 0,4.33e-4 9.6941815,9.694184 0 0 1 0,8.36e-4 9.6941815,9.694184 0 0 0 0,4.31e-4 9.6941815,9.694184 0 0 0 0,4.33e-4 9.6941815,9.694184 0 0 0 0,4.32e-4 9.6941815,9.694184 0 0 0 0,4.31e-4 9.6941815,9.694184 0 0 0 0,4.34e-4 9.6941815,9.694184 0 0 0 0,4.31e-4 9.6941815,9.694184 0 0 0 0,4.31e-4 9.6941815,9.694184 0 0 0 0,4.33e-4 9.6941815,9.694184 0 0 0 0,4.32e-4 9.6941815,9.694184 0 0 1 0,8.36e-4 9.6941815,9.694184 0 0 0 0,4.31e-4 9.6941815,9.694184 0 0 0 0,4.31e-4 9.6941815,9.694184 0 0 0 0,4.33e-4 9.6941815,9.694184 0 0 0 0,4.32e-4 9.6941815,9.694184 0 0 0 0,4.31e-4 9.6941815,9.694184 0 0 0 0,4.34e-4 9.6941815,9.694184 0 0 0 0,4.31e-4 9.6941815,9.694184 0 0 0 0,4.32e-4 9.6941815,9.694184 0 0 0 0,4.31e-4 9.6941815,9.694184 0 0 1 0,8.36e-4 9.6941815,9.694184 0 0 0 0,4.31e-4 9.6941815,9.694184 0 0 0 0,4.34e-4 9.6941815,9.694184 0 0 0 0,4.31e-4 9.6941815,9.694184 0 0 0 0,4.32e-4 9.6941815,9.694184 0 0 0 0,4.33e-4 9.6941815,9.694184 0 0 1 -4.31e-4,0.01944 9.6941815,9.694184 0 0 1 -4.33e-4,0.01944 9.6941815,9.694184 0 0 0 0,4.31e-4 9.6941815,9.694184 0 0 0 0,4.31e-4 9.6941815,9.694184 0 0 0 0,4.34e-4 9.6941815,9.694184 0 0 0 0,4.31e-4 9.6941815,9.694184 0 0 0 0,4.32e-4 9.6941815,9.694184 0 0 1 0,8.36e-4 9.6941815,9.694184 0 0 0 0,4.31e-4 9.6941815,9.694184 0 0 0 0,4.34e-4 9.6941815,9.694184 0 0 0 0,4.31e-4 9.6941815,9.694184 0 0 0 0,4.31e-4 9.6941815,9.694184 0 0 0 0,4.32e-4 9.6941815,9.694184 0 0 0 0,4.33e-4 9.6941815,9.694184 0 0 0 0,4.31e-4 9.6941815,9.694184 0 0 0 0,4.31e-4 9.6941815,9.694184 0 0 0 0,4.34e-4 9.6941815,9.694184 0 0 1 0,8.36e-4 9.6941815,9.694184 0 0 0 0,4.33e-4 9.6941815,9.694184 0 0 0 0,4.32e-4 9.6941815,9.694184 0 0 0 0,4.31e-4 9.6941815,9.694184 0 0 0 0,4.34e-4 9.6941815,9.694184 0 0 0 0,4.31e-4 9.6941815,9.694184 0 0 0 0,4.32e-4 9.6941815,9.694184 0 0 0 0,4.33e-4 9.6941815,9.694184 0 0 0 0,4.31e-4 9.6941815,9.694184 0 0 0 0,4.31e-4 9.6941815,9.694184 0 0 1 0,8.36e-4 9.6941815,9.694184 0 0 0 0,4.31e-4 9.6941815,9.694184 0 0 0 0,4.31e-4 9.6941815,9.694184 0 0 0 0,4.34e-4 9.6941815,9.694184 0 0 0 0,4.31e-4 9.6941815,9.694184 0 0 0 0,4.32e-4 9.6941815,9.694184 0 0 0 0,4.33e-4 9.6941815,9.694184 0 0 0 0,4.31e-4 9.6941815,9.694184 0 0 0 0,4.31e-4 9.6941815,9.694184 0 0 0 0,4.34e-4 9.6941815,9.694184 0 0 1 0,8.36e-4 9.6941815,9.694184 0 0 0 0,4.33e-4 9.6941815,9.694184 0 0 0 0,4.31e-4 9.6941815,9.694184 0 0 0 0,4.32e-4 9.6941815,9.694184 0 0 0 0,4.31e-4 9.6941815,9.694184 0 0 0 0,4.34e-4 9.6941815,9.694184 0 0 1 -4.31e-4,0.01944 9.6941815,9.694184 0 0 1 -4.32e-4,0.01944 9.6941815,9.694184 0 0 1 -8.35e-4,0.01944 9.6941815,9.694184 0 0 1 -4.32e-4,0.01901 9.6941815,9.694184 0 0 1 -4.3e-4,0.01944 9.6941815,9.694184 0 0 1 -8.36e-4,0.01944 9.6941815,9.694184 0 0 1 -4.32e-4,0.01944 9.6941815,9.694184 0 0 1 -8.36e-4,0.01944 9.6941815,9.694184 0 0 1 -4.31e-4,0.01944 9.6941815,9.694184 0 0 1 -8.36e-4,0.01944 9.6941815,9.694184 0 0 1 -8.36e-4,0.01944 9.6941815,9.694184 0 0 1 -8.36e-4,0.01944 9.6941815,9.694184 0 0 1 -8.36e-4,0.01944 9.6941815,9.694184 0 0 1 -8.36e-4,0.01944 9.6941815,9.694184 0 0 1 -8.36e-4,0.01944 9.6941815,9.694184 0 0 1 -8.35e-4,0.01944 9.6941815,9.694184 0 0 1 -0.0013,0.01944 9.6941815,9.694184 0 0 1 -8.36e-4,0.01944 9.6941815,9.694184 0 0 1 -0.0013,0.019 9.6941815,9.694184 0 0 1 -8.36e-4,0.01944 9.6941815,9.694184 0 0 1 -0.0013,0.01944 9.6941815,9.694184 0 0 1 -0.0013,0.01944 9.6941815,9.694184 0 0 1 -0.0013,0.01944 9.6941815,9.694184 0 0 1 -0.0013,0.01944 9.6941815,9.694184 0 0 1 -0.0013,0.01944 9.6941815,9.694184 0 0 1 -0.0013,0.01944 9.6941815,9.694184 0 0 1 -0.0018,0.01901 9.6941815,9.694184 0 0 1 -0.0013,0.01944 9.6941815,9.694184 0 0 1 -0.0013,0.01944 9.6941815,9.694184 0 0 1 -0.0018,0.01944 9.6941815,9.694184 0 0 1 -0.0018,0.01944 9.6941815,9.694184 0 0 1 -0.0013,0.01944 9.6941815,9.694184 0 0 1 -0.0018,0.01901 9.6941815,9.694184 0 0 1 -0.0018,0.01944 9.6941815,9.694184 0 0 1 -0.0018,0.01944 9.6941815,9.694184 0 0 1 -0.0018,0.01944 9.6941815,9.694184 0 0 1 -0.0018,0.01901 9.6941815,9.694184 0 0 1 -0.0022,0.01943 9.6941815,9.694184 0 0 1 -0.0018,0.01944 9.6941815,9.694184 0 0 1 -0.13953,0.940855 9.6941815,9.694184 0 0 1 -0.231111,0.923146 9.6941815,9.694184 0 0 1 -0.32053,0.895499 9.6941815,9.694184 0 0 1 -0.406929,0.860076 9.6941815,9.694184 0 0 1 -0.489002,0.816013 9.6941815,9.694184 0 0 1 -0.56676,0.764176 9.6941815,9.694184 0 0 1 -0.638901,0.704996 9.6941815,9.694184 0 0 1 -0.704995,0.638901 9.6941815,9.694184 0 0 1 -0.764177,0.566328 9.6941815,9.694184 0 0 1 -0.816015,0.489436 9.6941815,9.694184 0 0 1 -0.859642,0.406494 9.6941815,9.694184 0 0 1 -0.895933,0.320532 9.6941815,9.694184 0 0 1 -0.922712,0.231109 9.6941815,9.694184 0 0 1 -0.941289,0.139531 9.6941815,9.694184 0 0 1 -0.949928,0.04665 9.6941815,9.694184 0 0 1 -0.950362,-0.04665 9.6941815,9.694184 0 0 1 -0.940855,-0.139531 9.6941815,9.694184 0 0 1 -0.923146,-0.231109 9.6941815,9.694184 0 0 1 -0.895499,-0.320532 9.6941815,9.694184 0 0 1 -0.860076,-0.406494 9.6941815,9.694184 0 0 1 -0.816014,-0.489436 9.6941815,9.694184 0 0 1 -0.764176,-0.566328 9.6941815,9.694184 0 0 1 -0.704994,-0.638901 9.6941815,9.694184 0 0 1 -0.638901,-0.704996 9.6941815,9.694184 0 0 1 -0.566329,-0.764176 9.6941815,9.694184 0 0 1 -0.489436,-0.816013 9.6941815,9.694184 0 0 1 -0.406495,-0.860076 9.6941815,9.694184 0 0 1 -0.320531,-0.895499 9.6941815,9.694184 0 0 1 -0.23111,-0.923146 9.6941815,9.694184 0 0 1 -0.13953,-0.940855 9.6941815,9.694184 0 0 1 -0.04665,-0.950362 9.6941815,9.694184 0 0 1 0.04665,-0.949928 9.6941815,9.694184 0 0 1 0.13953,-0.941289 9.6941815,9.694184 0 0 1 0.23111,-0.922712 9.6941815,9.694184 0 0 1 0.320531,-0.895933 9.6941815,9.694184 0 0 1 0.406495,-0.859642 9.6941815,9.694184 0 0 1 0.489436,-0.816016 9.6941815,9.694184 0 0 1 0.566329,-0.764177 9.6941815,9.694184 0 0 1 0.638901,-0.704994 9.6941815,9.694184 0 0 1 0.704994,-0.638901 9.6941815,9.694184 0 0 1 0.764176,-0.56676 9.6941815,9.694184 0 0 1 0.816014,-0.489002 9.6941815,9.694184 0 0 1 0.860076,-0.406929 9.6941815,9.694184 0 0 1 0.895499,-0.32053 9.6941815,9.694184 0 0 1 0.923146,-0.23111 9.6941815,9.694184 0 0 1 0.940855,-0.13953 9.6941815,9.694184 0 0 1 0.950362,-0.04665 z" />
    <path
       id="path4320"
       style="fill:#00c22c;fill-opacity:1;stroke:#ffffff;stroke-width:0.632014;stroke-miterlimit:4;stroke-dasharray:none;stroke-opacity:1"
       d="M 66.80599,24.424633 A 25.828017,25.828023 0 0 0 40.977786,50.252404 25.828017,25.828023 0 0 0 66.80599,76.080609 25.828017,25.828023 0 0 0 92.633762,50.252404 25.828017,25.828023 0 0 0 66.80599,24.424633 Z m 0,16.133663 a 9.6941824,9.6941849 0 0 1 0.330897,0.0056 9.6941824,9.6941849 0 0 1 0.330466,0.01685 9.6941824,9.6941849 0 0 1 0.330035,0.02851 9.6941824,9.6941849 0 0 1 0.328305,0.03931 9.6941824,9.6941849 0 0 1 0.327443,0.05054 9.6941824,9.6941849 0 0 1 0.325284,0.0622 9.6941824,9.6941849 0 0 1 0.322689,0.07258 9.6941824,9.6941849 0 0 1 0.3201,0.0838 9.6941824,9.6941849 0 0 1 0.317506,0.09504 9.6941824,9.6941849 0 0 1 0.313619,0.105403 9.6941824,9.6941849 0 0 1 0.309731,0.116203 9.6941824,9.6941849 0 0 1 0.305845,0.126571 9.6941824,9.6941849 0 0 1 0.301523,0.136939 9.6941824,9.6941849 0 0 1 0.296338,0.147306 9.6941824,9.6941849 0 0 1 0.291158,0.157241 9.6941824,9.6941849 0 0 1 0.285972,0.167177 9.6941824,9.6941849 0 0 1 0.279923,0.176681 9.6941824,9.6941849 0 0 1 0.273445,0.186616 9.6941824,9.6941849 0 0 1 0.267396,0.195255 9.6941824,9.6941849 0 0 1 0.260053,0.204328 9.6941824,9.6941849 0 0 1 0.253143,0.213401 9.6941824,9.6941849 0 0 1 0.245796,0.221605 9.6941824,9.6941849 0 0 1 0.238024,0.230246 9.6941824,9.6941849 0 0 1 0.230245,0.238023 9.6941824,9.6941849 0 0 1 0.221606,0.245797 9.6941824,9.6941849 0 0 1 0.213401,0.253143 9.6941824,9.6941849 0 0 1 0.204328,0.260484 9.6941824,9.6941849 0 0 1 0.195254,0.266965 9.6941824,9.6941849 0 0 1 0.186617,0.273444 9.6941824,9.6941849 0 0 1 0.176681,0.279924 9.6941824,9.6941849 0 0 1 0.167178,0.285973 9.6941824,9.6941849 0 0 1 0.157239,0.291156 9.6941824,9.6941849 0 0 1 0.147307,0.296339 9.6941824,9.6941849 0 0 1 0.136938,0.301523 9.6941824,9.6941849 0 0 1 0.126572,0.305845 9.6941824,9.6941849 0 0 1 0.116202,0.309731 9.6941824,9.6941849 0 0 1 0.105404,0.31405 9.6941824,9.6941849 0 0 1 0.09504,0.317074 9.6941824,9.6941849 0 0 1 0.0838,0.3201 9.6941824,9.6941849 0 0 1 0.073,0.323123 9.6941824,9.6941849 0 0 1 0.06178,0.324851 9.6941824,9.6941849 0 0 1 0.05054,0.327442 9.6941824,9.6941849 0 0 1 0.03931,0.328305 9.6941824,9.6941849 0 0 1 0.02851,0.330035 9.6941824,9.6941849 0 0 1 0.01685,0.330466 9.6941824,9.6941849 0 0 1 4.31e-4,0.0065 9.6941824,9.6941849 0 0 1 0,0.0069 9.6941824,9.6941849 0 0 1 4.32e-4,0.0065 9.6941824,9.6941849 0 0 1 0,0.0065 9.6941824,9.6941849 0 0 1 0,0.0069 9.6941824,9.6941849 0 0 1 4.33e-4,0.0065 9.6941824,9.6941849 0 0 1 0,0.0064 9.6941824,9.6941849 0 0 1 4.31e-4,0.0069 9.6941824,9.6941849 0 0 1 0,0.0065 9.6941824,9.6941849 0 0 1 4.31e-4,0.0065 9.6941824,9.6941849 0 0 1 0,0.0064 9.6941824,9.6941849 0 0 1 4.32e-4,0.0069 9.6941824,9.6941849 0 0 1 0,0.0065 9.6941824,9.6941849 0 0 1 0,0.0065 9.6941824,9.6941849 0 0 1 4.33e-4,0.0069 9.6941824,9.6941849 0 0 1 0,0.0065 9.6941824,9.6941849 0 0 1 0,0.0065 9.6941824,9.6941849 0 0 1 4.32e-4,0.0069 9.6941824,9.6941849 0 0 1 0,0.0065 9.6941824,9.6941849 0 0 1 0,0.0065 9.6941824,9.6941849 0 0 1 4.31e-4,0.0069 9.6941824,9.6941849 0 0 1 0,0.0065 9.6941824,9.6941849 0 0 1 0,0.0065 9.6941824,9.6941849 0 0 1 4.33e-4,0.0069 9.6941824,9.6941849 0 0 1 0,0.0064 9.6941824,9.6941849 0 0 1 0,0.0065 9.6941824,9.6941849 0 0 1 0,0.0069 9.6941824,9.6941849 0 0 1 4.31e-4,0.0065 9.6941824,9.6941849 0 0 1 0,0.0065 9.6941824,9.6941849 0 0 1 0,0.0069 9.6941824,9.6941849 0 0 1 0,0.0064 9.6941824,9.6941849 0 0 1 0,0.0065 9.6941824,9.6941849 0 0 1 4.32e-4,0.0069 9.6941824,9.6941849 0 0 1 0,0.0065 9.6941824,9.6941849 0 0 1 0,0.0065 9.6941824,9.6941849 0 0 1 0,0.0065 9.6941824,9.6941849 0 0 1 0,0.0069 9.6941824,9.6941849 0 0 1 0,0.0065 9.6941824,9.6941849 0 0 1 0,0.0064 9.6941824,9.6941849 0 0 1 0,0.0069 9.6941824,9.6941849 0 0 1 4.34e-4,0.0065 9.6941824,9.6941849 0 0 1 0,0.0065 9.6941824,9.6941849 0 0 1 0,0.0069 9.6941824,9.6941849 0 0 1 0,0.0065 9.6941824,9.6941849 0 0 1 0,0.0065 9.6941824,9.6941849 0 0 1 0,0.0069 9.6941824,9.6941849 0 0 1 0,0.0065 9.6941824,9.6941849 0 0 1 0,0.0064 9.6941824,9.6941849 0 0 1 0,0.0069 9.6941824,9.6941849 0 0 1 0,0.0065 9.6941824,9.6941849 0 0 1 0,0.01944 9.6941824,9.6941849 0 0 1 0,0.01944 9.6941824,9.6941849 0 0 1 0,0.01944 9.6941824,9.6941849 0 0 1 -4.34e-4,0.01944 9.6941824,9.6941849 0 0 1 0,0.01944 9.6941824,9.6941849 0 0 1 -4.32e-4,0.01944 9.6941824,9.6941849 0 0 1 0,0.01944 9.6941824,9.6941849 0 0 1 -4.31e-4,0.01944 9.6941824,9.6941849 0 0 1 -4.33e-4,0.01944 9.6941824,9.6941849 0 0 1 0,0.01944 9.6941824,9.6941849 0 0 1 -4.31e-4,0.01944 9.6941824,9.6941849 0 0 1 -4.32e-4,0.01944 9.6941824,9.6941849 0 0 1 -8.35e-4,0.01944 9.6941824,9.6941849 0 0 1 -4.32e-4,0.01901 9.6941824,9.6941849 0 0 1 -4.3e-4,0.01944 9.6941824,9.6941849 0 0 1 -8.36e-4,0.01944 9.6941824,9.6941849 0 0 1 -4.32e-4,0.01944 9.6941824,9.6941849 0 0 1 -8.36e-4,0.01944 9.6941824,9.6941849 0 0 1 -4.31e-4,0.01944 9.6941824,9.6941849 0 0 1 -8.36e-4,0.01944 9.6941824,9.6941849 0 0 1 -8.36e-4,0.01944 9.6941824,9.6941849 0 0 1 -8.36e-4,0.01944 9.6941824,9.6941849 0 0 1 -8.36e-4,0.01944 9.6941824,9.6941849 0 0 1 -8.36e-4,0.01944 9.6941824,9.6941849 0 0 1 -8.36e-4,0.01944 9.6941824,9.6941849 0 0 1 -8.35e-4,0.01944 9.6941824,9.6941849 0 0 1 -0.0013,0.01944 9.6941824,9.6941849 0 0 1 -8.36e-4,0.01944 9.6941824,9.6941849 0 0 1 -0.0013,0.019 9.6941824,9.6941849 0 0 1 -8.36e-4,0.01944 9.6941824,9.6941849 0 0 1 -0.0013,0.01944 9.6941824,9.6941849 0 0 1 -0.0013,0.01943 9.6941824,9.6941849 0 0 1 -0.0013,0.01944 9.6941824,9.6941849 0 0 1 -0.0013,0.01944 9.6941824,9.6941849 0 0 1 -0.0013,0.01944 9.6941824,9.6941849 0 0 1 -0.0013,0.01944 9.6941824,9.6941849 0 0 1 -0.0018,0.01901 9.6941824,9.6941849 0 0 1 -0.0013,0.01944 9.6941824,9.6941849 0 0 1 -0.0013,0.01944 9.6941824,9.6941849 0 0 1 -0.0018,0.01944 9.6941824,9.6941849 0 0 1 -0.0018,0.01944 9.6941824,9.6941849 0 0 1 -0.0013,0.01944 9.6941824,9.6941849 0 0 1 -0.0018,0.01901 9.6941824,9.6941849 0 0 1 -0.0018,0.01944 9.6941824,9.6941849 0 0 1 -0.0018,0.01944 9.6941824,9.6941849 0 0 1 -0.0018,0.01944 9.6941824,9.6941849 0 0 1 -0.0018,0.01901 9.6941824,9.6941849 0 0 1 -0.0022,0.01944 9.6941824,9.6941849 0 0 1 -0.0018,0.01944 9.6941824,9.6941849 0 0 1 -0.13953,0.940855 9.6941824,9.6941849 0 0 1 -0.231111,0.923146 9.6941824,9.6941849 0 0 1 -0.32053,0.895499 9.6941824,9.6941849 0 0 1 -0.406929,0.860076 9.6941824,9.6941849 0 0 1 -0.489002,0.816013 9.6941824,9.6941849 0 0 1 -0.56676,0.764176 9.6941824,9.6941849 0 0 1 -0.638901,0.704996 9.6941824,9.6941849 0 0 1 -0.704995,0.638901 9.6941824,9.6941849 0 0 1 -0.764177,0.566328 9.6941824,9.6941849 0 0 1 -0.816015,0.489436 9.6941824,9.6941849 0 0 1 -0.859642,0.406494 9.6941824,9.6941849 0 0 1 -0.895933,0.320532 9.6941824,9.6941849 0 0 1 -0.922712,0.231109 9.6941824,9.6941849 0 0 1 -0.941289,0.139531 9.6941824,9.6941849 0 0 1 -0.949928,0.04665 9.6941824,9.6941849 0 0 1 -0.950362,-0.04665 9.6941824,9.6941849 0 0 1 -0.940855,-0.139531 9.6941824,9.6941849 0 0 1 -0.923146,-0.231109 9.6941824,9.6941849 0 0 1 -0.895499,-0.320532 9.6941824,9.6941849 0 0 1 -0.860076,-0.406494 9.6941824,9.6941849 0 0 1 -0.816014,-0.489436 9.6941824,9.6941849 0 0 1 -0.764176,-0.566328 9.6941824,9.6941849 0 0 1 -0.704994,-0.638901 9.6941824,9.6941849 0 0 1 -0.638901,-0.704996 9.6941824,9.6941849 0 0 1 -0.566329,-0.764176 9.6941824,9.6941849 0 0 1 -0.489436,-0.816013 9.6941824,9.6941849 0 0 1 -0.406495,-0.860076 9.6941824,9.6941849 0 0 1 -0.320531,-0.895499 9.6941824,9.6941849 0 0 1 -0.23111,-0.923146 9.6941824,9.6941849 0 0 1 -0.13953,-0.940855 9.6941824,9.6941849 0 0 1 -0.04665,-0.950362 9.6941824,9.6941849 0 0 1 0.04665,-0.949928 9.6941824,9.6941849 0 0 1 0.13953,-0.941289 9.6941824,9.6941849 0 0 1 0.23111,-0.922712 9.6941824,9.6941849 0 0 1 0.320531,-0.895933 9.6941824,9.6941849 0 0 1 0.406495,-0.859642 9.6941824,9.6941849 0 0 1 0.489436,-0.816016 9.6941824,9.6941849 0 0 1 0.566329,-0.764177 9.6941824,9.6941849 0 0 1 0.638901,-0.704994 9.6941824,9.6941849 0 0 1 0.704994,-0.638901 9.6941824,9.6941849 0 0 1 0.764176,-0.56676 9.6941824,9.6941849 0 0 1 0.816014,-0.489002 9.6941824,9.6941849 0 0 1 0.860076,-0.406929 9.6941824,9.6941849 0 0 1 0.895499,-0.32053 9.6941824,9.6941849 0 0 1 0.923146,-0.23111 9.6941824,9.6941849 0 0 1 0.940855,-0.13953 9.6941824,9.6941849 0 0 1 0.950362,-0.04665 z" />
    <ellipse
       style="fill:none;stroke:#ffffff;stroke-width:0.417968;stroke-miterlimit:4;stroke-dasharray:none;stroke-opacity:1"
       id="ellipse2423"
       cx="66.80587"
       cy="50.252541"
       rx="11.387174"
       ry="11.387167" />
    <path
       id="path4232"
       style="fill:#00a02c;fill-opacity:1;stroke:#ffffff;stroke-width:0.417967;stroke-miterlimit:4;stroke-dasharray:none;stroke-opacity:1"
       d="M 66.80599,33.171836 A 17.080758,17.080763 0 0 0 49.724989,50.252404 17.080758,17.080763 0 0 0 66.80599,67.333406 17.080758,17.080763 0 0 0 83.886558,50.252404 17.080758,17.080763 0 0 0 66.80599,33.171836 Z m 0,7.38646 a 9.6941824,9.6941849 0 0 1 0.330897,0.0056 9.6941824,9.6941849 0 0 1 0.330466,0.01685 9.6941824,9.6941849 0 0 1 0.330035,0.02851 9.6941824,9.6941849 0 0 1 0.328305,0.03931 9.6941824,9.6941849 0 0 1 0.327443,0.05054 9.6941824,9.6941849 0 0 1 0.325284,0.0622 9.6941824,9.6941849 0 0 1 0.322689,0.07258 9.6941824,9.6941849 0 0 1 0.3201,0.0838 9.6941824,9.6941849 0 0 1 0.317506,0.09504 9.6941824,9.6941849 0 0 1 0.313619,0.105403 9.6941824,9.6941849 0 0 1 0.309731,0.116203 9.6941824,9.6941849 0 0 1 0.305845,0.126571 9.6941824,9.6941849 0 0 1 0.301523,0.136939 9.6941824,9.6941849 0 0 1 0.296338,0.147306 9.6941824,9.6941849 0 0 1 0.291158,0.157241 9.6941824,9.6941849 0 0 1 0.285972,0.167177 9.6941824,9.6941849 0 0 1 0.279923,0.176681 9.6941824,9.6941849 0 0 1 0.273445,0.186616 9.6941824,9.6941849 0 0 1 0.267396,0.195255 9.6941824,9.6941849 0 0 1 0.260053,0.204328 9.6941824,9.6941849 0 0 1 0.253143,0.213401 9.6941824,9.6941849 0 0 1 0.245796,0.221605 9.6941824,9.6941849 0 0 1 0.238024,0.230246 9.6941824,9.6941849 0 0 1 0.230245,0.238023 9.6941824,9.6941849 0 0 1 0.221606,0.245797 9.6941824,9.6941849 0 0 1 0.213401,0.253143 9.6941824,9.6941849 0 0 1 0.204328,0.260484 9.6941824,9.6941849 0 0 1 0.195254,0.266965 9.6941824,9.6941849 0 0 1 0.186617,0.273444 9.6941824,9.6941849 0 0 1 0.176681,0.279924 9.6941824,9.6941849 0 0 1 0.167178,0.285973 9.6941824,9.6941849 0 0 1 0.157239,0.291156 9.6941824,9.6941849 0 0 1 0.147307,0.296339 9.6941824,9.6941849 0 0 1 0.136938,0.301523 9.6941824,9.6941849 0 0 1 0.126572,0.305845 9.6941824,9.6941849 0 0 1 0.116202,0.309731 9.6941824,9.6941849 0 0 1 0.105404,0.31405 9.6941824,9.6941849 0 0 1 0.09504,0.317074 9.6941824,9.6941849 0 0 1 0.0838,0.3201 9.6941824,9.6941849 0 0 1 0.073,0.323123 9.6941824,9.6941849 0 0 1 0.06178,0.324851 9.6941824,9.6941849 0 0 1 0.05054,0.327442 9.6941824,9.6941849 0 0 1 0.03931,0.328305 9.6941824,9.6941849 0 0 1 0.02851,0.330035 9.6941824,9.6941849 0 0 1 0.01685,0.330466 9.6941824,9.6941849 0 0 1 0.0056,0.330898 9.6941824,9.6941849 0 0 1 -0.04665,0.950361 9.6941824,9.6941849 0 0 1 -0.13953,0.940856 9.6941824,9.6941849 0 0 1 -0.231111,0.923146 9.6941824,9.6941849 0 0 1 -0.32053,0.895498 9.6941824,9.6941849 0 0 1 -0.406929,0.860077 9.6941824,9.6941849 0 0 1 -0.489002,0.816013 9.6941824,9.6941849 0 0 1 -0.56676,0.764176 9.6941824,9.6941849 0 0 1 -0.638901,0.704995 9.6941824,9.6941849 0 0 1 -0.704995,0.638901 9.6941824,9.6941849 0 0 1 -0.764177,0.566329 9.6941824,9.6941849 0 0 1 -0.816015,0.489435 9.6941824,9.6941849 0 0 1 -0.859642,0.406495 9.6941824,9.6941849 0 0 1 -0.895933,0.320531 9.6941824,9.6941849 0 0 1 -0.922712,0.23111 9.6941824,9.6941849 0 0 1 -0.941289,0.13953 9.6941824,9.6941849 0 0 1 -0.949928,0.04665 9.6941824,9.6941849 0 0 1 -0.950362,-0.04665 9.6941824,9.6941849 0 0 1 -0.940855,-0.13953 9.6941824,9.6941849 0 0 1 -0.923146,-0.23111 9.6941824,9.6941849 0 0 1 -0.895499,-0.320531 9.6941824,9.6941849 0 0 1 -0.860076,-0.406495 9.6941824,9.6941849 0 0 1 -0.816013,-0.489435 9.6941824,9.6941849 0 0 1 -0.764177,-0.566329 9.6941824,9.6941849 0 0 1 -0.704994,-0.638901 9.6941824,9.6941849 0 0 1 -0.638901,-0.704995 9.6941824,9.6941849 0 0 1 -0.566329,-0.764176 9.6941824,9.6941849 0 0 1 -0.489436,-0.816013 9.6941824,9.6941849 0 0 1 -0.406495,-0.860077 9.6941824,9.6941849 0 0 1 -0.320531,-0.895498 9.6941824,9.6941849 0 0 1 -0.23111,-0.923146 9.6941824,9.6941849 0 0 1 -0.13953,-0.940856 9.6941824,9.6941849 0 0 1 -0.04665,-0.950361 9.6941824,9.6941849 0 0 1 0.04665,-0.949928 9.6941824,9.6941849 0 0 1 0.13953,-0.941289 9.6941824,9.6941849 0 0 1 0.23111,-0.922713 9.6941824,9.6941849 0 0 1 0.320531,-0.895933 9.6941824,9.6941849 0 0 1 0.406495,-0.859641 9.6941824,9.6941849 0 0 1 0.489436,-0.816016 9.6941824,9.6941849 0 0 1 0.566329,-0.764177 9.6941824,9.6941849 0 0 1 0.638901,-0.704994 9.6941824,9.6941849 0 0 1 0.704994,-0.638901 9.6941824,9.6941849 0 0 1 0.764177,-0.566761 9.6941824,9.6941849 0 0 1 0.816013,-0.489002 9.6941824,9.6941849 0 0 1 0.860076,-0.406928 9.6941824,9.6941849 0 0 1 0.895499,-0.320531 9.6941824,9.6941849 0 0 1 0.923146,-0.23111 9.6941824,9.6941849 0 0 1 0.940855,-0.13953 9.6941824,9.6941849 0 0 1 0.950362,-0.04665 z" />
  </g>
</svg>
